<svg xmlns="http://www.w3.org/2000/svg" version="1.1" xmlns:xlink="http://www.w3.org/1999/xlink" xmlns:svgjs="http://svgjs.dev/svgjs" width="1000" height="1000"><style>
    #light-icon {
      display: inline;
    }
    #dark-icon {
      display: none;
    }

    @media (prefers-color-scheme: dark) {
      #light-icon {
        display: none;
      }
      #dark-icon {
        display: inline;
      }
    }
  </style><g id="light-icon"><svg xmlns="http://www.w3.org/2000/svg" version="1.1" xmlns:xlink="http://www.w3.org/1999/xlink" xmlns:svgjs="http://svgjs.dev/svgjs" width="1000" height="1000"><g><g transform="matrix(1.953125,0,0,1.953125,0,0)"><svg xmlns="http://www.w3.org/2000/svg" version="1.1" xmlns:xlink="http://www.w3.org/1999/xlink" xmlns:svgjs="http://svgjs.dev/svgjs" width="512" height="512"><svg width="512" height="512" viewBox="0 0 512 512" fill="none" xmlns="http://www.w3.org/2000/svg">
<path d="M318.898 397.133V383.552H180.469V397.133H318.898Z" fill="#1A1A19"></path>
<path d="M258.426 45L415.069 45.0001V57.8265L266.441 57.8265L82.4928 433.287L71.1835 427.32L258.426 45Z" fill="#1A1A19"></path>
<path d="M187.821 89.0712C189.412 85.8371 193.234 84.5512 196.357 86.199C199.48 87.8469 200.722 91.8045 199.13 95.0386L19.0023 461.141C17.4111 464.375 13.5895 465.661 10.4665 464.013C7.34355 462.365 6.10183 458.407 7.69306 455.173L187.821 89.0712Z" fill="#1A1A19"></path>
<path d="M292.249 145.461C293.846 142.155 297.11 140.067 300.68 140.067C304.253 140.067 307.52 142.16 309.115 145.472L459.437 457.54C461.063 460.916 459.628 465.014 456.29 466.527C453.193 467.93 449.577 466.582 448.053 463.457L300.683 161.193L152.403 464.387C150.813 467.639 146.975 468.935 143.839 467.28C140.725 465.637 139.474 461.7 141.038 458.463L292.249 145.461Z" fill="#1A1A19"></path>
<path d="M331.654 104.191C330.063 100.957 326.242 99.6713 323.119 101.319C319.996 102.967 318.754 106.925 320.345 110.159L492.998 461.067C494.589 464.301 498.411 465.587 501.533 463.939C504.656 462.291 505.898 458.333 504.307 455.099L331.654 104.191Z" fill="#1A1A19"></path>
<path d="M253.416 247.537L242.106 253.505L345.256 463.152C346.847 466.386 350.669 467.672 353.792 466.024C356.915 464.376 358.157 460.418 356.565 457.184L253.416 247.537Z" fill="#1A1A19"></path>
</svg></svg></g></g></svg></g><g id="dark-icon"><svg xmlns="http://www.w3.org/2000/svg" version="1.1" xmlns:xlink="http://www.w3.org/1999/xlink" xmlns:svgjs="http://svgjs.dev/svgjs" width="1000" height="1000"><g><g transform="matrix(1.953125,0,0,1.953125,0,0)"><svg xmlns="http://www.w3.org/2000/svg" version="1.1" xmlns:xlink="http://www.w3.org/1999/xlink" xmlns:svgjs="http://svgjs.dev/svgjs" width="512" height="512"><svg width="512" height="512" viewBox="0 0 512 512" fill="none" xmlns="http://www.w3.org/2000/svg">
<path d="M318.898 397.133V383.552H180.469V397.133H318.898Z" fill="#D9D9D9"></path>
<path d="M258.426 45L415.069 45.0001V57.8265L266.441 57.8265L82.4928 433.287L71.1835 427.32L258.426 45Z" fill="#D9D9D9"></path>
<path d="M187.821 89.0712C189.412 85.8371 193.234 84.5512 196.357 86.199C199.48 87.8469 200.722 91.8045 199.13 95.0386L19.0023 461.141C17.4111 464.375 13.5895 465.661 10.4665 464.013C7.34355 462.365 6.10183 458.407 7.69306 455.173L187.821 89.0712Z" fill="#D9D9D9"></path>
<path d="M292.249 145.461C293.846 142.155 297.11 140.067 300.68 140.067C304.253 140.067 307.52 142.16 309.115 145.472L459.437 457.54C461.063 460.916 459.628 465.014 456.29 466.527C453.193 467.93 449.577 466.582 448.053 463.457L300.683 161.193L152.403 464.387C150.813 467.639 146.975 468.935 143.839 467.28C140.725 465.637 139.474 461.7 141.038 458.463L292.249 145.461Z" fill="#D9D9D9"></path>
<path d="M331.654 104.191C330.063 100.957 326.242 99.6713 323.119 101.319C319.996 102.967 318.754 106.925 320.345 110.159L492.998 461.067C494.589 464.301 498.411 465.587 501.533 463.939C504.656 462.291 505.898 458.333 504.307 455.099L331.654 104.191Z" fill="#D9D9D9"></path>
<path d="M253.416 247.537L242.106 253.505L345.256 463.152C346.847 466.386 350.669 467.672 353.792 466.024C356.915 464.376 358.157 460.418 356.565 457.184L253.416 247.537Z" fill="#D9D9D9"></path>
</svg></svg></g></g></svg></g></svg>